<svg width="80" height="80" viewBox="0 0 80 80" fill="none" xmlns="http://www.w3.org/2000/svg">
<g clip-path="url(#clip0_200_140522)">
<path d="M37.4334 69.3889C57.139 69.3889 73.1131 48.6686 73.1131 23.1078V11.076H42.5677C22.8621 11.076 6.89355 31.7852 6.89355 57.3515V69.3889H37.4334Z" fill="#FFDF77"/>
<path d="M72.8525 11.076L6.89355 69.034V57.3515C6.89355 31.7852 22.8676 11.076 42.5677 11.076H72.8525Z" fill="#FFE799"/>
<path d="M11.333 62.6087C11.333 60.8902 12.0027 59.2421 13.1948 58.0264C14.3869 56.8108 16.004 56.1271 17.6907 56.1256H23.348C25.0356 56.1256 26.6541 56.8087 27.8474 58.0245C29.0407 59.2403 29.7111 60.8893 29.7111 62.6087C29.7111 62.7994 29.6368 62.9823 29.5044 63.1171C29.372 63.252 29.1925 63.3278 29.0053 63.3278H12.0443C11.9511 63.3285 11.8588 63.3104 11.7725 63.2746C11.6862 63.2388 11.6078 63.186 11.5417 63.1191C11.4755 63.0523 11.4231 62.9728 11.3873 62.8851C11.3514 62.7975 11.333 62.7036 11.333 62.6087Z" fill="#492B7C"/>
<path d="M22.6422 56.1256H17.718C16.0314 56.1271 14.4143 56.8108 13.2221 58.0264C12.03 59.2421 11.3604 60.8902 11.3604 62.6087C11.3604 62.7994 11.4347 62.9823 11.5671 63.1171C11.6994 63.252 11.879 63.3278 12.0661 63.3278H16.3064C16.4936 63.3278 16.6731 63.252 16.8055 63.1171C16.9379 62.9823 17.0122 62.7994 17.0122 62.6087V61.8896C17.0122 60.3657 17.6045 58.9038 18.6595 57.8237C19.7146 56.7435 21.1465 56.133 22.6422 56.1256Z" fill="#3D2467"/>
<path d="M21.1052 53.4834C20.1755 53.6071 19.231 53.4314 18.4042 52.9807C17.5775 52.5301 16.9098 51.8271 16.4949 50.9704C16.08 50.1137 15.9387 49.1462 16.0907 48.2035C16.2426 47.2608 16.6804 46.3902 17.3424 45.7138C18.0045 45.0373 18.8578 44.5889 19.7826 44.4314C20.7074 44.2739 21.6574 44.4152 22.4995 44.8355C23.3415 45.2558 24.0333 45.934 24.478 46.7751C24.9226 47.6162 25.0978 48.5779 24.9789 49.5255C24.8522 50.5282 24.4036 51.46 23.7029 52.1759C23.0023 52.8917 22.089 53.3514 21.1052 53.4834Z" fill="#492B7C"/>
<path d="M35.5059 62.6087C35.5059 60.8902 36.1755 59.2421 37.3676 58.0264C38.5598 56.8108 40.1769 56.1271 41.8635 56.1256H47.5427C49.2303 56.1256 50.8488 56.8087 52.0421 58.0245C53.2355 59.2403 53.9059 60.8893 53.9059 62.6087C53.9059 62.7994 53.8315 62.9823 53.6991 63.1171C53.5668 63.252 53.3873 63.3278 53.2001 63.3278H36.239C36.1441 63.3315 36.0493 63.3157 35.9605 63.2812C35.8717 63.2468 35.7906 63.1944 35.7222 63.1273C35.6537 63.0601 35.5992 62.9796 35.5621 62.8904C35.5249 62.8013 35.5058 62.7055 35.5059 62.6087Z" fill="#4FA58C"/>
<path d="M46.8151 56.1256H41.8909C41.0534 56.1227 40.2236 56.2882 39.4491 56.6127C38.6746 56.9372 37.9705 57.4143 37.3773 58.0166C36.7841 58.6189 36.3135 59.3345 35.9923 60.1226C35.6712 60.9106 35.5059 61.7554 35.5059 62.6087C35.5059 62.7994 35.5802 62.9823 35.7126 63.1171C35.8449 63.252 36.0245 63.3278 36.2117 63.3278H40.43C40.6172 63.3278 40.7968 63.252 40.9291 63.1171C41.0615 62.9823 41.1358 62.7994 41.1358 62.6087V61.8896C41.1358 61.1308 41.2829 60.3794 41.5686 59.6786C41.8542 58.9779 42.2729 58.3415 42.8006 57.8059C43.3282 57.2704 43.9545 56.8463 44.6434 56.558C45.3323 56.2696 46.0703 56.1227 46.8151 56.1256Z" fill="#428975"/>
<path d="M45.2781 53.4834C44.3483 53.6071 43.4039 53.4314 42.5771 52.9807C41.7503 52.5301 41.0827 51.8271 40.6678 50.9704C40.2529 50.1137 40.1115 49.1462 40.2635 48.2035C40.4155 47.2608 40.8532 46.3902 41.5153 45.7138C42.1774 45.0373 43.0306 44.5889 43.9555 44.4314C44.8803 44.2739 45.8303 44.4152 46.6723 44.8355C47.5143 45.2558 48.2062 45.934 48.6508 46.7751C49.0955 47.6162 49.2706 48.5779 49.1518 49.5255C49.025 50.5282 48.5764 51.46 47.8758 52.1759C47.1752 52.8917 46.2618 53.3514 45.2781 53.4834Z" fill="#4FA58C"/>
<path d="M43.5483 17.3333H21.0557C20.8719 17.3296 20.6891 17.3632 20.518 17.432C20.347 17.5008 20.191 17.6035 20.0592 17.7341C19.9274 17.8648 19.8224 18.0208 19.7502 18.1932C19.678 18.3655 19.6401 18.5507 19.6387 18.7381V34.051C19.6401 34.2369 19.6775 34.4207 19.7486 34.592C19.8198 34.7632 19.9234 34.9185 20.0534 35.0489C20.1835 35.1794 20.3375 35.2824 20.5067 35.3522C20.6758 35.422 20.8568 35.4572 21.0393 35.4557H24.8692L24.9458 38.8896C24.9502 39.0651 25.0034 39.2359 25.0994 39.3817C25.1954 39.5276 25.3302 39.6426 25.488 39.7134C25.6458 39.7841 25.8201 39.8076 25.9905 39.7812C26.161 39.7548 26.3205 39.6794 26.4504 39.5641L31.1284 35.4557H43.5483C43.7308 35.4572 43.9118 35.422 44.0809 35.3522C44.2501 35.2824 44.4041 35.1794 44.5342 35.0489C44.6642 34.9185 44.7678 34.7632 44.839 34.592C44.9101 34.4207 44.9475 34.2369 44.9489 34.051V18.7381C44.9482 18.5519 44.9114 18.3678 44.8404 18.1962C44.7695 18.0246 44.666 17.8691 44.5358 17.7385C44.4056 17.6079 44.2513 17.5049 44.0818 17.4353C43.9123 17.3658 43.731 17.3311 43.5483 17.3333Z" fill="#4FA58C"/>
<path d="M22.5439 34.051V18.7381C22.5454 18.5517 22.5829 18.3674 22.6544 18.1958C22.7259 18.0242 22.83 17.8687 22.9606 17.7382C23.0913 17.6076 23.2459 17.5047 23.4157 17.4352C23.5855 17.3657 23.7671 17.3311 23.9501 17.3333H21.0557C20.8719 17.3296 20.6891 17.3632 20.518 17.432C20.347 17.5008 20.191 17.6035 20.0592 17.7341C19.9274 17.8648 19.8224 18.0208 19.7502 18.1932C19.678 18.3655 19.6401 18.5507 19.6387 18.7381V34.051C19.6401 34.2369 19.6775 34.4207 19.7486 34.592C19.8198 34.7632 19.9234 34.9185 20.0534 35.0489C20.1835 35.1794 20.3375 35.2824 20.5067 35.3522C20.6758 35.422 20.8568 35.4572 21.0393 35.4557H23.9336C23.5674 35.4543 23.2164 35.3062 22.9564 35.0434C22.6964 34.7805 22.5482 34.4241 22.5439 34.051Z" fill="#428975"/>
<path d="M40.753 21.7929H63.2455C63.4282 21.7907 63.6096 21.8253 63.7791 21.8949C63.9485 21.9644 64.1028 22.0674 64.233 22.198C64.3633 22.3286 64.4668 22.4842 64.5377 22.6557C64.6086 22.8273 64.6455 23.0115 64.6462 23.1976V38.5105C64.6448 38.6965 64.6074 38.8803 64.5362 39.0515C64.4651 39.2227 64.3615 39.378 64.2314 39.5084C64.1014 39.6389 63.9474 39.742 63.7782 39.8118C63.609 39.8816 63.428 39.9167 63.2455 39.9153H59.4156L59.339 43.3491C59.3347 43.5247 59.2814 43.6954 59.1854 43.8413C59.0894 43.9872 58.9547 44.1022 58.7969 44.1729C58.6391 44.2437 58.4648 44.2672 58.2943 44.2407C58.1239 44.2143 57.9644 44.139 57.8344 44.0236L53.1893 39.9153H40.753C40.5691 39.919 40.3864 39.8854 40.2153 39.8166C40.0443 39.7478 39.8883 39.6451 39.7565 39.5144C39.6247 39.3838 39.5196 39.2278 39.4474 39.0554C39.3753 38.8831 39.3373 38.6979 39.3359 38.5105V23.1976C39.3373 23.0102 39.3753 22.825 39.4474 22.6527C39.5196 22.4804 39.6247 22.3243 39.7565 22.1937C39.8883 22.063 40.0443 21.9603 40.2153 21.8915C40.3864 21.8227 40.5691 21.7892 40.753 21.7929Z" fill="#674E92"/>
<path d="M42.2412 38.5105V23.1976C42.2426 23.0112 42.2802 22.8269 42.3517 22.6553C42.4232 22.4837 42.5273 22.3282 42.6579 22.1977C42.7885 22.0672 42.9432 21.9642 43.113 21.8948C43.2828 21.8253 43.4644 21.7907 43.6473 21.7929H40.753C40.5691 21.7892 40.3864 21.8227 40.2153 21.8915C40.0443 21.9603 39.8883 22.063 39.7565 22.1937C39.6247 22.3243 39.5196 22.4804 39.4474 22.6527C39.3753 22.825 39.3373 23.0102 39.3359 23.1976V38.5105C39.3374 38.6965 39.3747 38.8803 39.4459 39.0515C39.5171 39.2227 39.6206 39.378 39.7507 39.5084C39.8808 39.6389 40.0348 39.742 40.2039 39.8118C40.3731 39.8816 40.5541 39.9167 40.7366 39.9153H43.6309C43.2647 39.9138 42.9137 39.7657 42.6537 39.5029C42.3937 39.2401 42.2455 38.8836 42.2412 38.5105Z" fill="#492B7C"/>
<path d="M72.3664 41.1189L69.396 41.2255C69.2012 41.2321 69.007 41.2001 68.8246 41.1315C68.6421 41.0628 68.4751 40.9588 68.3329 40.8255C68.1907 40.6921 68.0763 40.532 67.9961 40.3543C67.916 40.1767 67.8717 39.9849 67.8658 39.7901C67.8579 39.595 67.8888 39.4004 67.9566 39.2174C68.0245 39.0343 68.128 38.8666 68.2612 38.7239C68.3943 38.5812 68.5545 38.4663 68.7324 38.3859C68.9102 38.3055 69.1023 38.2612 69.2974 38.2556L72.2678 38.1489C72.4626 38.1418 72.6569 38.1732 72.8396 38.2414C73.0223 38.3095 73.1897 38.4131 73.3323 38.5461C73.4749 38.6791 73.5898 38.839 73.6704 39.0165C73.7511 39.194 73.7959 39.3857 73.8022 39.5806C73.8107 39.7763 73.78 39.9717 73.7121 40.1554C73.6442 40.3391 73.5404 40.5075 73.4067 40.6507C73.2731 40.7939 73.1123 40.909 72.9336 40.9894C72.755 41.0698 72.5622 41.1138 72.3664 41.1189Z" fill="#F2A900"/>
<path d="M62.5437 48.4379L62.4413 45.4637C62.4342 45.2688 62.4656 45.0745 62.5337 44.8918C62.6019 44.7091 62.7054 44.5417 62.8385 44.3992C62.9715 44.2566 63.1313 44.1417 63.3088 44.061C63.4864 43.9804 63.6781 43.9356 63.8729 43.9292C64.0678 43.9221 64.2621 43.9535 64.4448 44.0217C64.6275 44.0898 64.7949 44.1934 64.9375 44.3264C65.08 44.4594 65.1949 44.6192 65.2756 44.7968C65.3562 44.9743 65.401 45.166 65.4074 45.3609L65.5141 48.3312C65.5264 48.7253 65.3824 49.1082 65.1134 49.3964C64.8443 49.6847 64.4722 49.8547 64.0782 49.8695C63.6855 49.8809 63.3041 49.7369 63.0169 49.4689C62.7296 49.2009 62.5596 48.8304 62.5437 48.4379Z" fill="#F2A900"/>
</g>
<defs>
<clipPath id="clip0_200_140522">
<rect width="80" height="80" fill="white"/>
</clipPath>
</defs>
</svg>
